<svg width="48" height="48" viewBox="0 0 48 48" fill="none" xmlns="http://www.w3.org/2000/svg"><path d="M24 4C35.0457 4 44 12.9543 44 24C44 35.0457 35.0457 44 24 44C12.9543 44 4 35.0457 4 24C4 12.9543 12.9543 4 24 4Z" stroke="#2196f3" stroke-width="4" stroke-linecap="round" stroke-linejoin="round"/><path d="M24 12V16" stroke="#2196f3" stroke-width="4" stroke-linecap="round" stroke-linejoin="round"/><path d="M32 20H16C14.8954 20 14 20.8954 14 22V34C14 35.1046 14.8954 36 16 36H32C33.1046 36 34 35.1046 34 34V22C34 20.8954 33.1046 20 32 20Z" stroke="#2196f3" stroke-width="4" stroke-linecap="round" stroke-linejoin="round"/><path d="M27 28C27 29.6569 25.6569 31 24 31C22.3431 31 21 29.6569 21 28C21 26.3431 22.3431 25 24 25C25.6569 25 27 26.3431 27 28Z" fill="#2196f3"/></svg>